<?xml version="1.0" encoding="UTF-8" standalone="no"?>
<!DOCTYPE svg PUBLIC "-//W3C//DTD SVG 1.1//EN" "http://www.w3.org/Graphics/SVG/1.1/DTD/svg11.dtd">
<svg xmlns="http://www.w3.org/2000/svg" xmlns:xl="http://www.w3.org/1999/xlink" version="1.1" viewBox="199 751 262.5 242" width="262.5pt" height="242pt" xmlns:dc="http://purl.org/dc/elements/1.1/">
  <metadata> Produced by OmniGraffle 7.5 
    <dc:date>2017-12-09 14:05:09 +0000</dc:date>
  </metadata>
  <defs>
    <marker orient="auto" overflow="visible" markerUnits="strokeWidth" id="FilledArrow_Marker" viewBox="-1 -4 10 8" markerWidth="10" markerHeight="8" color="black">
      <g>
        <path d="M 8 0 L 0 -3 L 0 3 Z" fill="currentColor" stroke="currentColor" stroke-width="1"/>
      </g>
    </marker>
  </defs>
  <g stroke="none" stroke-opacity="1" stroke-dasharray="none" fill="none" fill-opacity="1">
    <title>Canvas 2</title>
    <rect fill="white" width="263.5" height="243"/>
    <g>
      <title>Layer 1</title>
      <path d="M 330 751 C 396.8021 751 451 805.1979 451 872 C 451 938.8021 396.8021 993 330 993 C 263.19792 993 209 938.8021 209 872 C 209 805.1979 263.19792 751 330 751 Z M 373.16675 833.0884 C 371.90633 834.03625 371.11983 835.7706 369.54683 836.0832 C 370.33333 835.9218 371.11983 833.0884 371.59375 832.46325 C 372.5416 831.3642 373.802 830.7289 375.0624 830.10375 C 377.7446 829.0047 380.41667 828.682 383.2501 828.2182 C 385.93225 827.5829 389.2396 827.5829 391.2865 829.9525 C 390.8126 829.4786 394.59383 826.17125 395.06775 826.0099 C 396.4895 825.2234 398.849 825.536 399.79683 824.1243 C 400.1094 823.6504 400.1094 820.6557 400.1094 820.6557 C 397.42725 820.96825 396.4895 818.4474 396.32817 816.2392 C 396.32817 816.4005 396.0156 816.8744 395.38033 817.4996 C 395.54167 815.1401 392.5469 816.8643 391.43775 816.55175 C 387.81783 815.6039 388.28167 813.0831 387.1826 810.411 C 386.54733 808.98925 384.8231 808.5254 384.18783 807.1037 C 383.5526 806.1558 383.24 804.1089 381.82833 803.9476 C 380.8805 803.78625 379.14617 807.2549 378.8336 807.1037 C 377.41183 806.3172 376.78667 807.41625 375.6775 808.0515 C 374.72967 808.68675 373.94317 808.3641 372.99533 808.838 C 375.82875 807.8902 371.7349 806.3172 370.31317 806.62975 C 372.5214 805.9945 371.41225 803.635 370.15183 802.5359 L 370.93833 802.5359 C 370.62575 801.1142 366.20925 799.85375 364.7976 798.916 C 363.3859 797.97825 355.81333 796.3952 354.24033 797.343 C 352.35475 798.4421 354.71425 801.5982 354.71425 803.1712 C 354.8756 805.05675 352.82867 805.5307 352.82867 807.11375 C 352.82867 809.7959 357.87033 809.322 356.6099 812.9419 C 355.8234 815.1502 352.82867 815.6241 351.56825 817.3584 C 350.30783 818.9314 351.7296 821.7749 352.99 822.874 C 354.2504 823.8218 350.78175 825.3948 350.30783 825.7074 C 347.62567 826.9678 345.57875 823.02525 344.9536 820.66575 C 344.47967 818.9314 344.31833 816.8845 342.43275 815.9367 C 341.4849 815.6241 338.49017 815.1502 337.865 816.098 C 336.91717 813.7385 333.60983 812.7907 331.4016 812.0042 C 328.2455 810.9051 325.5734 810.9051 322.2661 811.3689 C 323.36517 811.2076 321.9535 806.32725 319.27133 807.11375 C 320.05783 805.54075 319.74525 803.8064 320.05783 802.2334 C 320.3704 800.973 321.00567 799.7126 321.9434 798.6135 C 322.256 797.97825 325.72467 794.3583 324.6256 794.197 C 327.30775 794.5096 330.2924 794.6709 332.50067 792.4627 C 333.9224 791.0409 334.5476 788.6814 335.96933 787.1084 C 338.01625 784.7489 340.5371 787.7437 342.74533 787.8949 C 345.9014 788.05625 345.7401 784.5876 344.00575 783.0146 C 346.05267 783.1759 344.31833 779.3947 343.21925 778.92075 C 341.7975 778.4468 336.44325 779.8686 339.27667 780.9677 C 338.6414 780.6551 334.86017 788.5302 332.662 784.5876 C 332.02675 783.8011 331.71417 780.49375 330.3025 780.3324 C 329.0421 780.3324 328.2556 781.7542 327.78167 782.6919 C 328.56817 780.645 323.36517 779.22325 322.2661 779.072 C 324.6256 777.499 322.74 775.7647 321.00567 774.8168 C 319.74525 774.0303 315.80267 773.3951 314.7036 774.6555 C 311.70883 778.2754 317.85967 778.7493 319.43267 779.6972 C 319.9066 780.00975 321.79217 781.1189 320.6931 781.9054 C 319.74525 782.3793 316.91183 783.1658 316.59925 783.791 C 315.6514 785.21275 317.69833 786.78575 316.28667 788.2075 C 314.8649 786.78575 314.8649 784.42625 313.76583 782.85325 C 315.1876 784.5876 308.099 783.63975 308.25025 783.63975 C 305.89075 783.63975 302.1095 785.21275 300.37517 782.85325 C 300.0626 782.218 300.0626 778.5981 301.0104 779.3846 C 299.58867 778.2855 298.6509 777.1763 297.7031 776.5512 C 292.5001 778.2855 287.61975 780.49375 282.89067 783.0146 C 283.5259 783.1759 283.98975 783.1759 284.77625 782.85325 C 286.03667 782.3793 287.13575 781.5928 288.39617 780.9677 C 289.96917 780.3324 293.2765 778.4468 295.01083 779.8686 C 295.17217 779.556 295.6461 779.2333 295.79733 779.0821 C 296.8964 780.3425 298.0056 781.6029 298.9534 783.0247 C 297.693 782.3894 295.6461 782.7121 294.22433 782.8633 C 293.12525 783.1759 291.2296 783.4986 290.75567 784.7489 C 291.2296 785.5354 291.85475 786.7958 291.54217 787.5823 C 289.49525 786.1606 287.92225 783.8011 285.07875 783.4885 C 283.81833 783.4885 282.5579 783.4885 281.6101 783.6498 C 266.48508 791.9988 253.71958 804.1291 244.58408 818.6289 C 245.21933 819.2642 245.8445 819.728 246.46967 819.8893 C 248.04267 820.36325 246.46967 824.931 249.46442 822.5715 C 250.41225 823.358 250.5635 824.4571 249.93833 825.56625 C 250.09967 825.4049 256.40175 829.5088 256.87567 829.8214 C 257.97475 830.76925 259.70908 831.8683 260.183 833.12875 C 260.49558 834.2278 259.54775 835.48825 258.61 835.9622 C 258.44867 835.6496 256.08917 833.28 255.77658 833.91525 C 255.30267 834.70175 255.77658 838.9569 257.51092 838.7956 C 254.99008 838.9569 256.08917 848.7176 255.464 850.6133 C 255.464 850.7746 255.77658 850.7746 255.77658 850.7746 C 255.30267 852.6602 256.87567 860.0714 260.03175 859.2849 C 257.98483 859.7588 263.65167 867.0088 264.44825 867.4726 C 266.49517 868.8943 268.86475 869.8321 270.27642 871.8891 C 271.84942 874.0973 271.84942 877.4047 274.05767 879.139 C 273.42242 881.0246 277.365 883.2328 277.21375 885.915 C 276.90117 886.0763 276.73983 886.0763 276.42725 886.2276 C 277.21375 888.4358 280.2085 888.4358 281.3076 890.4828 C 281.94283 891.7432 281.3076 894.7379 283.3545 894.1027 C 283.6671 890.634 281.3076 887.1653 279.57325 884.3319 C 278.62542 882.7589 277.68767 881.3372 276.89108 879.7642 C 276.10458 878.3424 275.94325 876.6081 275.31808 875.0351 C 275.95333 875.1964 279.41192 876.4568 279.09933 876.9207 C 277.83892 880.0768 284.141 885.5823 285.87533 887.6292 C 286.34925 888.1031 289.96917 892.8322 288.0836 892.8322 C 290.1305 892.8322 292.9639 895.9883 293.91175 897.5613 C 295.3335 899.9208 295.01083 902.9155 295.95867 905.4363 C 296.9065 908.5924 301.3129 910.0041 303.83375 911.4258 C 306.042 912.5249 307.9276 914.108 310.13583 914.8945 C 313.44317 916.1549 314.22967 915.0558 317.07317 914.5819 C 321.167 913.9467 321.6409 918.5245 324.94825 920.2488 C 326.99517 921.3478 331.41167 922.9309 333.60983 921.9831 C 332.662 922.2957 336.91717 928.7591 337.22975 929.233 C 338.6515 931.1186 341.3236 932.0664 342.8966 933.9621 C 343.3705 933.6495 343.8444 933.1756 343.99567 932.5403 C 343.3604 934.2747 346.35517 937.582 347.93825 937.2694 C 349.6726 936.9568 350.1465 933.4882 350.1465 932.2278 C 346.9904 933.8008 344.157 932.5403 342.42267 929.3943 C 342.1101 928.6078 339.58925 924.1913 341.7874 924.1913 C 344.78217 924.1913 342.73525 921.8318 342.42267 919.6236 C 342.1101 917.4153 339.90183 916.0037 338.80275 914.108 C 337.8549 915.9936 334.7089 915.5298 333.7611 913.9467 C 333.7611 914.4206 333.28717 915.2071 333.28717 915.8323 C 332.50067 915.8323 331.71417 915.9936 330.92767 915.6709 C 331.24025 913.7853 331.4016 911.4158 331.8755 909.3688 C 332.662 906.5354 337.865 901.0198 331.089 901.3324 C 328.7295 901.4938 327.78167 902.4315 326.99517 904.4885 C 326.20867 906.3741 326.52125 908.1084 324.313 909.0563 C 322.89125 909.6915 318.17225 909.3688 316.7505 908.5823 C 313.75575 906.848 311.70883 901.3324 311.70883 898.1864 C 311.5475 893.9313 313.75575 890.15 311.70883 886.2074 C 312.65667 885.4209 313.5944 883.8479 314.7036 883.0513 C 315.6514 882.4161 316.7505 883.5253 317.2244 881.6296 C 316.7505 881.317 316.12533 880.6818 315.964 880.6818 C 318.3235 881.7808 322.74 879.1088 324.7869 880.6818 C 326.04733 881.6296 327.4691 881.9422 328.2556 880.3692 C 328.4169 879.8953 327.1565 878.0097 327.78167 876.7493 C 328.2556 879.4314 329.9899 879.9053 332.3494 878.171 C 333.29725 879.1188 335.8181 878.8063 337.5524 879.744 C 339.28675 880.8431 339.59933 882.5774 341.64625 880.2179 C 342.90667 882.1035 343.068 882.1035 343.53183 883.9992 C 344.00575 885.7335 344.9536 890.1399 346.5266 890.9365 C 349.8339 892.9834 349.0474 887.4678 348.73483 885.5823 C 348.5735 885.4209 348.5735 880.228 348.42225 880.228 C 343.3806 879.1289 345.26617 875.1863 348.10967 872.5042 C 348.5836 872.1916 352.2035 870.9312 353.7765 869.6708 C 355.19825 868.4103 356.9326 866.2021 356.136 864.1552 C 356.9225 864.1552 357.55775 863.5199 357.87033 862.7334 C 357.3964 862.5721 355.51083 860.9991 355.18817 861.1604 C 356.28725 860.5252 356.136 859.5874 355.50075 858.6396 C 357.07375 857.6918 356.28725 855.9574 357.86025 855.3323 C 359.5946 857.6918 363.06325 855.0197 361.3289 853.124 C 362.9019 850.9158 366.5319 852.0249 367.46967 849.9679 C 369.82917 850.6032 368.1049 847.6084 369.35525 845.8741 C 370.45433 844.4523 372.35 844.4523 373.77175 843.6658 C 373.77175 843.8272 377.71433 841.4576 376.4539 841.3063 C 379.1361 841.6189 384.49033 838.7855 380.3965 836.426 C 381.03175 835.00425 378.97475 834.3791 377.5631 834.0665 C 378.66217 833.7539 380.0839 834.3791 381.03175 833.7539 C 383.07867 832.3322 381.667 831.707 379.93267 831.2331 C 377.7244 830.5978 374.891 832.0196 373.15667 833.1187 Z M 347.4845 971.2603 C 369.0729 967.4791 388.29175 956.7706 402.7815 941.4842 C 401.83367 940.5364 400.09933 940.849 398.8389 940.2238 C 397.5785 939.7499 396.63067 939.276 395.05767 938.9634 C 395.37025 935.8073 391.9016 934.7082 389.7034 933.1352 C 387.6565 931.5622 386.3961 929.8279 383.40133 930.4531 C 383.08875 930.6144 379.93267 931.7135 380.5679 932.3387 C 378.521 930.6043 377.57317 929.6565 374.9011 928.87 C 372.38025 928.0835 370.6459 924.9274 368.1251 927.7709 C 366.86467 929.0313 367.48983 930.927 366.86467 932.1874 C 364.81775 930.4531 368.75025 928.4062 367.17725 926.5206 C 365.29167 924.3123 361.97425 927.9423 360.40125 928.8801 C 359.4534 929.6666 358.35433 929.9792 357.7191 930.927 C 356.9326 932.0261 356.62 933.4478 355.98475 934.5469 C 355.51083 933.2865 352.82867 933.5991 352.6774 932.6613 C 353.31267 936.4426 353.31267 940.3852 354.09917 944.1664 C 354.5731 946.3747 354.09917 949.9946 352.2136 951.7289 C 350.328 953.4632 347.9584 955.3488 347.64583 958.031 C 347.33325 959.9166 347.80717 961.6509 349.5314 962.1248 C 349.69275 964.4843 347.0106 966.2187 347.1719 968.7395 C 347.1719 968.9008 347.33325 970.4738 347.4845 971.2603 Z" fill="#ccc"/>
      <path d="M 289 870 L 305 870 L 305 868 L 289 868 Z M 289 862 L 305 862 L 305 860 L 289 860 Z M 313.5 869 C 313.5 868.172 312.828 867.5 312 867.5 C 311.172 867.5 310.5 868.172 310.5 869 C 310.5 869.828 311.172 870.5 312 870.5 C 312.828 870.5 313.5 869.828 313.5 869 Z M 289 854 L 305 854 L 305 852 L 289 852 Z M 313.5 861 C 313.5 860.172 312.828 859.5 312 859.5 C 311.172 859.5 310.5 860.172 310.5 861 C 310.5 861.828 311.172 862.5 312 862.5 C 312.828 862.5 313.5 861.828 313.5 861 Z M 313.5 853 C 313.5 852.172 312.828 851.5 312 851.5 C 311.172 851.5 310.5 852.172 310.5 853 C 310.5 853.828 311.172 854.5 312 854.5 C 312.828 854.5 313.5 853.828 313.5 853 Z M 315 866 L 315 872 L 287 872 L 287 866 Z M 315 858 L 315 864 L 287 864 L 287 858 Z M 315 850 L 315 856 L 287 856 L 287 850 Z" fill="black"/>
      <path d="M 441.768 825.5795 C 454.83514 813.2953 455.93614 794.972 433.8453 795.442 C 413.0059 795.8854 355.53226 826.8606 333.6472 839.0762" marker-end="url(#FilledArrow_Marker)" stroke="black" stroke-linecap="round" stroke-linejoin="round" stroke-width="1"/>
    </g>
  </g>
</svg>
